:SAMPLES-PER-SECOND 30
:FULLY-SPECIFIED
:DEGREES
34
root  76.7149 39.4445 3.46957 173.745 -77.1767 -179.077
RightUpLeg  -17.6566 -5.14604 -4.39198
RightLeg  23.1952 -0.480159 -0.456604
RightFoot  -1.16507 -0.729834 8.10525
RightToes  1.74622e-010 0 -3.6325e-017
Spine  5.3338 -0.438269 -1.78767
Spine1  14.1699 -0.447894 -1.08616
HEad  1.19061 13.4028 -8.93624
LeftShoulder1  9.4741 -12.6335 -51.2332
LeftArm  -11.3561 22.3267 -20.1269
LeftForeArm  17.5739 -11.0223 -4.51004
LeftHand  -0.244104 0.0205437 5.32207
RightShoulder  7.12556 10.7001 43.7596
RightArm  6.99092 -7.70465 31.493
RightForeArm  -4.45463 17.2414 6.75466
RightHand  -0.796881 0.7526 -15.1274
LeftUpLeg  5.82777 9.1405 0.613217
LeftLeg  14.5111 14.3959 0.0079994
LeftFoot  -17.8015 0.0195312 -1.54655
LeftToes  -1.18267e-011 5.39559e-011 -6.19194e-012
35
root  76.2294 39.4484 3.54359 171.986 -77.2966 -177.084
RightUpLeg  -18.281 -8.139 -1.94776
RightLeg  17.0269 0.103416 -0.0730451
RightFoot  -0.392985 -0.774273 8.04182
RightToes  1.74622e-010 0 -3.6325e-017
Spine  5.34335 -0.805529 -1.974
Spine1  14.4004 -0.970259 -0.472971
HEad  1.37747 13.9624 -8.78369
LeftShoulder1  9.2677 -12.4475 -50.71
LeftArm  -11.3097 20.1314 -19.806
LeftForeArm  17.2425 -11.4133 -4.61147
LeftHand  -0.244104 0.0205437 5.32207
RightShoulder  7.11948 10.8136 43.3541
RightArm  9.83219 -7.70667 31.9346
RightForeArm  -8.10106 20.9605 5.67259
RightHand  -0.822994 0.764534 -15.588
LeftUpLeg  6.62235 8.56652 0.720901
LeftLeg  13.9829 14.8787 0.0182442
LeftFoot  -18.0313 0.0151448 -1.59139
LeftToes  -1.18267e-011 5.39559e-011 -6.19194e-012
36
root  75.6924 39.4011 3.58592 171.405 -77.357 -176.27
RightUpLeg  -19.0909 -9.3396 -0.370079
RightLeg  11.3206 0.369828 1.21819
RightFoot  0.852721 -0.890361 8.36102
RightToes  1.74622e-010 0 -3.6325e-017
Spine  6.06399 -0.810059 -2.08523
Spine1  13.6782 -0.993435 -0.258748
HEad  1.53097 13.9723 -8.31617
LeftShoulder1  9.19596 -12.3811 -50.5294
LeftArm  -10.4904 17.2934 -18.8618
LeftForeArm  17.4882 -11.527 -4.93166
LeftHand  -0.244104 0.0205437 5.32207
RightShoulder  7.07091 10.6826 43.4625
RightArm  10.0634 -8.03144 31.9182
RightForeArm  -8.06544 23.6597 5.42496
RightHand  -0.821234 0.696666 -15.7206
LeftUpLeg  7.35068 8.34599 0.700822
LeftLeg  13.8036 15.0864 -0.0525342
LeftFoot  -18.5706 0.0166618 -1.50274
LeftToes  -1.18267e-011 5.39559e-011 -6.19194e-012
37
root  75.0976 39.3005 3.60118 171.998 -77.5618 -176.876
RightUpLeg  -19.4938 -6.77741 -0.693956
RightLeg  6.21072 -1.61037 3.18473
RightFoot  2.89477 -1.13495 9.22652
RightToes  1.74622e-010 0 -3.6325e-017
Spine  7.08095 -0.754808 -2.24013
Spine1  13.0793 -0.873094 -0.340056
HEad  1.37546 13.4303 -7.65261
LeftShoulder1  9.17165 -12.3739 -50.4198
LeftArm  -9.74175 13.8581 -18.034
LeftForeArm  18.2807 -11.4797 -5.26123
LeftHand  -0.244104 0.0205437 5.32207
RightShoulder  7.08185 10.6515 43.6342
RightArm  9.17088 -8.14365 32.0613
RightForeArm  -6.429 24.8992 5.65248
RightHand  -0.811183 0.734966 -15.4403
LeftUpLeg  8.38734 8.36289 0.536522
LeftLeg  13.6813 14.8596 -0.300246
LeftFoot  -19.3786 0.0155306 -1.48328
LeftToes  -1.18267e-011 5.39559e-011 -6.19194e-012
38
root  74.4317 39.1685 3.60376 173.542 -78.364 -178.664
RightUpLeg  -19.6075 -4.57418 -1.45298
RightLeg  2.0655 -2.45187 4.47111
RightFoot  5.05501 -1.31269 9.34621
RightToes  1.74622e-010 0 -3.6325e-017
Spine  7.77015 -0.979599 -2.50547
Spine1  13.4388 -1.06905 -0.460137
HEad  0.90634 12.428 -7.03448
LeftShoulder1  9.15503 -12.4203 -50.1851
LeftArm  -9.54646 10.2284 -17.8587
LeftForeArm  19.0553 -11.7275 -5.41233
LeftHand  -0.244104 0.0205437 5.32207
RightShoulder  7.19442 10.8831 43.6133
RightArm  8.78633 -7.89418 32.6012
RightForeArm  -5.87212 24.9497 5.63996
RightHand  -0.851657 1.03292 -15.4681
LeftUpLeg  9.7886 8.17323 0.0875282
LeftLeg  13.4016 14.3743 -0.498893
LeftFoot  -20.092 0.0135247 -1.48035
LeftToes  -1.18267e-011 5.39559e-011 -6.19194e-012
39
root  73.6687 38.9959 3.59668 176.056 -79.6079 178.537
RightUpLeg  -20.0255 -4.08753 -1.8372
RightLeg  0.329069 -1.5595 4.55831
RightFoot  6.47823 -1.28055 8.43732
RightToes  1.74622e-010 0 -3.6325e-017
Spine  8.38154 -1.1989 -2.70845
Spine1  13.7469 -1.30772 -0.516397
HEad  0.623192 11.0678 -6.67992
LeftShoulder1  9.31875 -12.6802 -50.2613
LeftArm  -9.11603 6.81689 -17.9008
LeftForeArm  19.3042 -12.528 -5.48397
LeftHand  -0.244104 0.0205437 5.32207
RightShoulder  7.27349 11.0649 43.5379
RightArm  8.72581 -7.88723 33.0157
RightForeArm  -6.2432 24.2251 5.48564
RightHand  -0.950352 1.53002 -16.0332
LeftUpLeg  11.3355 7.83414 -0.493974
LeftLeg  13.2249 13.7921 -0.613522
LeftFoot  -20.8408 0.00801072 -1.40333
LeftToes  -1.18267e-011 5.39559e-011 -6.19194e-012
40
root  72.779 38.765 3.56863 179.335 -80.8543 174.991
RightUpLeg  -20.7994 -4.20903 -2.02092
RightLeg  1.65175 -0.995523 3.90991
RightFoot  7.06888 -1.21061 7.75614
RightToes  1.74622e-010 0 -3.6325e-017
Spine  9.29605 -1.0657 -2.65655
Spine1  13.1432 -1.20307 -0.491515
HEad  0.716319 9.23277 -6.46774
LeftShoulder1  9.73299 -13.1826 -50.9092
LeftArm  -7.85474 3.78291 -17.9325
LeftForeArm  18.9678 -13.5851 -5.59321
LeftHand  -0.244104 0.0205437 5.32207
RightShoulder  7.22534 10.9763 43.5131
RightArm  8.74074 -8.38434 32.9765
RightForeArm  -6.45394 22.6158 5.33186
RightHand  -1.05996 2.11002 -16.5175
LeftUpLeg  13.0326 7.86831 -0.750795
LeftLeg  13.2852 12.7119 -0.963165
LeftFoot  -21.9521 0.00168226 -1.39862
LeftToes  -1.18267e-011 5.39559e-011 -6.19194e-012
41
root  71.7412 38.4972 3.50397 -176.676 -82.4757 170.841
RightUpLeg  -21.3492 -5.52914 -1.90428
RightLeg  5.10472 -0.921968 2.93206
RightFoot  7.27708 -1.23994 7.85607
RightToes  1.74622e-010 0 -3.6325e-017
Spine  9.96803 -0.966741 -2.54158
Spine1  12.3776 -1.23833 -0.113639
HEad  0.815688 7.37335 -6.20152
LeftShoulder1  10.1322 -13.6449 -51.5618
LeftArm  -6.12324 1.42705 -18.5637
LeftForeArm  18.262 -15.0486 -5.5154
LeftHand  -0.244104 0.0205437 5.32207
RightShoulder  7.13891 10.8503 43.3624
RightArm  7.46595 -8.90323 32.7808
RightForeArm  -4.47622 19.5847 5.80808
RightHand  -1.16236 2.77194 -16.6604
LeftUpLeg  14.7984 8.45476 -0.399962
LeftLeg  13.5636 10.3939 -1.47478
LeftFoot  -23.1256 -0.0192563 -1.53185
LeftToes  -1.18267e-011 5.39559e-011 -6.19194e-012
42
root  70.5693 38.2869 3.40898 -171.794 -85.1571 166.288
RightUpLeg  -21.4317 -8.27198 -1.33376
RightLeg  8.8016 -0.937118 2.02127
RightFoot  7.70911 -1.10859 6.92776
RightToes  1.74622e-010 0 -3.6325e-017
Spine  9.49158 -1.48901 -2.10429
Spine1  12.3818 -2.03591 0.701067
HEad  0.796417 5.97484 -5.82876
LeftShoulder1  10.2465 -13.8131 -51.6348
LeftArm  -4.28606 0.227081 -20.1389
LeftForeArm  17.6157 -17.6485 -4.90142
LeftHand  -0.244104 0.0205437 5.32207
RightShoulder  7.17658 10.9769 43.2008
RightArm  3.49481 -9.19634 32.4957
RightForeArm  0.459442 15.1804 7.0618
RightHand  -1.29521 3.48332 -17.0773
LeftUpLeg  16.1148 9.20009 0.635278
LeftLeg  14.0128 6.79887 -1.51451
LeftFoot  -23.6289 -0.0535669 -1.81338
LeftToes  -1.18267e-011 5.39559e-011 -6.19194e-012
43
root  69.2981 38.206 3.30614 168.048 -88.0558 -172.655
RightUpLeg  -21.6655 -11.1863 0.144468
RightLeg  12.1642 -0.78041 1.29468
RightFoot  8.1899 -0.521215 3.3534
RightToes  1.74622e-010 0 -3.6325e-017
Spine  8.15203 -2.34806 -0.202893
Spine1  12.6556 -3.01467 1.24328
HEad  0.949096 4.75893 -5.51927
LeftShoulder1  10.1546 -13.7277 -51.4294
LeftArm  -2.9381 0.379499 -21.9987
LeftForeArm  18.3522 -21.7128 -4.14022
LeftHand  -0.244104 0.0205437 5.32207
RightShoulder  7.36843 11.2542 43.5393
RightArm  -1.6189 -9.62926 31.6817
RightForeArm  5.436 10.3556 7.87474
RightHand  -1.45525 4.00871 -18.1014
LeftUpLeg  16.6328 9.72953 2.43926
LeftLeg  14.8733 2.88694 -0.82245
LeftFoot  -23.4326 -0.189898 -3.10695
LeftToes  -1.18267e-011 5.39559e-011 -6.19194e-012
